<svg width="100" height="100" xmlns="http://www.w3.org/2000/svg" xmlns:xlink="http://www.w3.org/1999/xlink">
 <g>
  <title>background</title>
  <rect fill="none" id="canvas_background" height="402" width="582" y="-1" x="-1"/>
 </g>
 <g>
  <title>Layer 1</title>
  <defs>
   <circle r="50" id="circle" cy="74" cx="23"/>
  </defs>
  <use x="27.055003" y="-23.880951" id="svg_3" xlink:href="#circle" fill="#ffffff"/>
  <clipPath id="circle_1_">
   <use id="svg_4" xlink:href="#circle"/>
  </clipPath>
  <defs>
   <path id="shoulders" d="m36,95.9c0,4 4.7,5.2 7.1,5.8c7.6,2 22.8,5.9 22.8,5.9c3.2,1.1 5.7,3.5 7.1,6.6l0,9.8l-100,0l0,-9.8c1.3,-3.1 3.9,-5.5 7.1,-6.6c0,0 15.2,-3.9 22.8,-5.9c2.4,-0.6 7.1,-1.8 7.1,-5.8c0,-4 0,-10.9 0,-10.9l26,0c0,0 0,6.9 0,10.9z"/>
  </defs>
  <use x="27.055003" y="-23.880951" id="svg_6" xlink:href="#shoulders" fill="#000000"/>
  <clipPath id="shoulders_1_">
   <use id="svg_7" xlink:href="#shoulders"/>
  </clipPath>
  <path id="head-shadow" fill="#D4B08C" d="m50.406148,11.119049c0.1,0 0.1,0 0.2,0c0,0 0,0 0,0c3.3,0 8.2,0.2 11.4,2c3.3,1.9 7.3,5.6 8.5,12.1c2.4,13.7 -2.1,35.4 -6.3,42.4c-4,6.7 -9.8,9.2 -13.5,9.4c0,0 -0.1,0 -0.1,0c-0.1,0 -0.1,0 -0.2,0c-0.1,0 -0.1,0 -0.2,0c0,0 -0.1,0 -0.1,0c-3.7,-0.2 -9.5,-2.7 -13.5,-9.4c-4.2,-7 -8.7,-28.7 -6.3,-42.4c1.2,-6.5 5.2,-10.2 8.5,-12.1c3.2,-1.8 8.1,-2 11.4,-2c0,0 0,0 0,0c0.1,0 0.1,0 0.2,0l0,0z" clip-path="url(#shoulders_1_)"/>
  <path id="head" fill="#6d6d6d" d="m49.655003,16.119049c19.1,0 20.7,13.8 20.8,15.1c1.1,11.9 -3,28.1 -6.8,33.7c-4,5.9 -9.8,8.1 -13.5,8.3c-0.2,0 -0.2,0 -0.3,0c-0.1,0 -0.1,0 -0.2,0c-3.8,-0.3 -9.6,-2.5 -13.6,-8.4c-3.8,-5.6 -7.9,-21.8 -6.8,-33.8c0.1,-1.2 1.3,-14.9 20.4,-14.9z"/>
 </g>
</svg>